<svg width="96" height="96" viewBox="0 0 96 96" fill="none" xmlns="http://www.w3.org/2000/svg">
    <style>
      @media (prefers-color-scheme: light) {
        .fill-color { fill: #5A5A5A; }
      }
      @media (prefers-color-scheme: dark) {
        .fill-color { fill: #D6D6D6; }
      }
    </style>
    <g clip-path="url(#clip0_2_15)">
        <path
            d="M86 76H74C68.4772 76 64 80.4772 64 86C64 91.5228 68.4772 96 74 96H86C91.5228 96 96 91.5228 96 86C96 80.4772 91.5228 76 86 76Z"
            class="fill-color" />
        <path fill-rule="evenodd" clip-rule="evenodd"
            d="M48 86C48 80.4772 52.4726 76 58.0039 76H85.9961C91.5211 76 96 80.4759 96 86C96 91.5228 91.5274 96 85.9961 96H58.0039C52.4789 96 48 91.5241 48 86ZM64 86C64 80.4772 68.4832 76 73.9934 76H86.0066C91.5258 76 96 80.4759 96 86C96 91.5228 91.5168 96 86.0066 96H73.9934C68.4742 96 64 91.5241 64 86Z"
            class="fill-color" fill-opacity="0.25" />
        <path fill-rule="evenodd" clip-rule="evenodd"
            d="M41.498 38H9.9971C4.47481 38 0 42.4772 0 48C0 53.5241 4.47585 58 9.9971 58H41.498H24.9931C19.4741 58 15 53.5241 15 48C15 42.4772 19.4703 38 24.9931 38H41.498Z"
            class="fill-color" fill-opacity="0.25" />
        <path
            d="M86 38H25C19.4772 38 15 42.4772 15 48C15 53.5228 19.4772 58 25 58H86C91.5229 58 96 53.5228 96 48C96 42.4772 91.5229 38 86 38Z"
            class="fill-color" />
        <path fill-rule="evenodd" clip-rule="evenodd"
            d="M57.5014 0H24.9971C19.4748 0 15 4.47715 15 10C15 15.5241 19.4759 20 24.9971 20H57.5014H42C36.4772 20 32 15.5241 32 10C32 4.47715 36.4749 0 42 0H57.5014Z"
            class="fill-color" fill-opacity="0.25" />
        <path
            d="M86 0H42C36.4772 0 32 4.47715 32 10C32 15.5228 36.4772 20 42 20H86C91.5228 20 96 15.5228 96 10C96 4.47715 91.5228 0 86 0Z"
            class="fill-color" />
        <path
            d="M86 76H74C68.4772 76 64 80.4772 64 86C64 91.5228 68.4772 96 74 96H86C91.5228 96 96 91.5228 96 86C96 80.4772 91.5228 76 86 76Z"
            class="fill-color" />
        <path fill-rule="evenodd" clip-rule="evenodd"
            d="M48 86C48 80.4772 52.4726 76 58.0039 76H85.9961C91.5211 76 96 80.4759 96 86C96 91.5228 91.5274 96 85.9961 96H58.0039C52.4789 96 48 91.5241 48 86ZM64 86C64 80.4772 68.4832 76 73.9934 76H86.0066C91.5258 76 96 80.4759 96 86C96 91.5228 91.5168 96 86.0066 96H73.9934C68.4742 96 64 91.5241 64 86Z"
            class="fill-color" fill-opacity="0.25" />
        <path fill-rule="evenodd" clip-rule="evenodd"
            d="M41.498 38H9.9971C4.47481 38 0 42.4772 0 48C0 53.5241 4.47585 58 9.9971 58H41.498H24.9931C19.4741 58 15 53.5241 15 48C15 42.4772 19.4703 38 24.9931 38H41.498Z"
            class="fill-color" fill-opacity="0.25" />
        <path
            d="M86 38H25C19.4772 38 15 42.4772 15 48C15 53.5228 19.4772 58 25 58H86C91.5229 58 96 53.5228 96 48C96 42.4772 91.5229 38 86 38Z"
            class="fill-color" />
        <path fill-rule="evenodd" clip-rule="evenodd"
            d="M57.5014 0H24.9971C19.4748 0 15 4.47715 15 10C15 15.5241 19.4759 20 24.9971 20H57.5014H42C36.4772 20 32 15.5241 32 10C32 4.47715 36.4749 0 42 0H57.5014Z"
            class="fill-color" fill-opacity="0.25" />
        <path
            d="M86 0H42C36.4772 0 32 4.47715 32 10C32 15.5228 36.4772 20 42 20H86C91.5228 20 96 15.5228 96 10C96 4.47715 91.5228 0 86 0Z"
            class="fill-color" />
    </g>
    <defs>
        <clipPath id="clip0_2_15">
            <rect width="96" height="96" fill="white" />
        </clipPath>
    </defs>
</svg>