<?xml version="1.0" encoding="UTF-8" standalone="no"?>
<svg width="128px" height="256px" viewBox="0 0 128 256" version="1.1" xmlns="http://www.w3.org/2000/svg" xmlns:xlink="http://www.w3.org/1999/xlink">
    <!-- Generator: Sketch 3.8.3 (29802) - http://www.bohemiancoding.com/sketch -->
    <title>icon_128x256</title>
    <desc>Created with Sketch.</desc>
    <defs></defs>
    <g id="Page-1" stroke="none" stroke-width="1" fill="none" fill-rule="evenodd">
        <g id="icon_128x256" fill="#FFFFFF">
            <rect id="Rectangle-2" fill-opacity="0.5" x="80" y="92" width="32" height="20" rx="10"></rect>
            <path d="M64,102 C64,96.4771525 68.4726199,92 74.0039454,92 L101.996055,92 C107.521081,92 112,96.4759382 112,102 C112,107.522847 107.52738,112 101.996055,112 L74.0039454,112 C68.4789189,112 64,107.524062 64,102 Z M80,102 C80,96.4771525 84.4831571,92 89.9933717,92 L102.006628,92 C107.525815,92 112,96.4759382 112,102 C112,107.522847 107.516843,112 102.006628,112 L89.9933717,112 C84.4741849,112 80,107.524062 80,102 Z" id="Combined-Shape" fill-opacity="0.25"></path>
            <path d="M57.4979998,54 L25.9970961,54 C20.4748104,54 16,58.4771525 16,64 C16,69.5240618 20.4758524,74 25.9970961,74 L57.4979998,74 L40.9930957,74 C35.4740613,74 31,69.5240618 31,64 C31,58.4771525 35.4702896,54 40.9930957,54 L57.4979998,54 Z" id="Combined-Shape" fill-opacity="0.25"></path>
            <rect id="Rectangle-2" fill-opacity="0.5" x="31" y="54" width="81" height="20" rx="10"></rect>
            <path d="M73.5014519,16 L40.9970961,16 C35.4748104,16 31,20.4771525 31,26 C31,31.5240618 35.4758524,36 40.9970961,36 L73.5014519,36 L58,36 C52.4771525,36 48,31.5240618 48,26 C48,20.4771525 52.4749186,16 58,16 L73.5014519,16 Z" id="Combined-Shape" fill-opacity="0.25"></path>
            <rect id="Rectangle-2" fill-opacity="0.5" x="48" y="16" width="64" height="20" rx="10"></rect>
            <rect id="Rectangle-2" fill-opacity="0.5" x="80" y="220" width="32" height="20" rx="10"></rect>
            <path d="M64,230 C64,224.477153 68.4726199,220 74.0039454,220 L101.996055,220 C107.521081,220 112,224.475938 112,230 C112,235.522847 107.52738,240 101.996055,240 L74.0039454,240 C68.4789189,240 64,235.524062 64,230 Z M80,230 C80,224.477153 84.4831571,220 89.9933717,220 L102.006628,220 C107.525815,220 112,224.475938 112,230 C112,235.522847 107.516843,240 102.006628,240 L89.9933717,240 C84.4741849,240 80,235.524062 80,230 Z" id="Combined-Shape" fill-opacity="0.25"></path>
            <path d="M57.4979998,182 L25.9970961,182 C20.4748104,182 16,186.477153 16,192 C16,197.524062 20.4758524,202 25.9970961,202 L57.4979998,202 L40.9930957,202 C35.4740613,202 31,197.524062 31,192 C31,186.477153 35.4702896,182 40.9930957,182 L57.4979998,182 Z" id="Combined-Shape" fill-opacity="0.25"></path>
            <rect id="Rectangle-2" fill-opacity="0.5" x="31" y="182" width="81" height="20" rx="10"></rect>
            <path d="M73.5014519,144 L40.9970961,144 C35.4748104,144 31,148.477153 31,154 C31,159.524062 35.4758524,164 40.9970961,164 L73.5014519,164 L58,164 C52.4771525,164 48,159.524062 48,154 C48,148.477153 52.4749186,144 58,144 L73.5014519,144 Z" id="Combined-Shape" fill-opacity="0.25"></path>
            <rect id="Rectangle-2" fill-opacity="0.5" x="48" y="144" width="64" height="20" rx="10"></rect>
            <rect id="Rectangle-2" fill-opacity="0.5" x="80" y="220" width="32" height="20" rx="10"></rect>
            <path d="M64,230 C64,224.477153 68.4726199,220 74.0039454,220 L101.996055,220 C107.521081,220 112,224.475938 112,230 C112,235.522847 107.52738,240 101.996055,240 L74.0039454,240 C68.4789189,240 64,235.524062 64,230 Z M80,230 C80,224.477153 84.4831571,220 89.9933717,220 L102.006628,220 C107.525815,220 112,224.475938 112,230 C112,235.522847 107.516843,240 102.006628,240 L89.9933717,240 C84.4741849,240 80,235.524062 80,230 Z" id="Combined-Shape" fill-opacity="0.25"></path>
            <path d="M57.4979998,182 L25.9970961,182 C20.4748104,182 16,186.477153 16,192 C16,197.524062 20.4758524,202 25.9970961,202 L57.4979998,202 L40.9930957,202 C35.4740613,202 31,197.524062 31,192 C31,186.477153 35.4702896,182 40.9930957,182 L57.4979998,182 Z" id="Combined-Shape" fill-opacity="0.25"></path>
            <rect id="Rectangle-2" fill-opacity="0.5" x="31" y="182" width="81" height="20" rx="10"></rect>
            <path d="M73.5014519,144 L40.9970961,144 C35.4748104,144 31,148.477153 31,154 C31,159.524062 35.4758524,164 40.9970961,164 L73.5014519,164 L58,164 C52.4771525,164 48,159.524062 48,154 C48,148.477153 52.4749186,144 58,144 L73.5014519,144 Z" id="Combined-Shape" fill-opacity="0.25"></path>
            <rect id="Rectangle-2" fill-opacity="0.5" x="48" y="144" width="64" height="20" rx="10"></rect>
        </g>
    </g>
</svg>